<svg xmlns="http://www.w3.org/2000/svg" viewBox="0 0 234.18 204.72"><defs><style>.cls-1{fill:#333;}.cls-2{fill:gray;}.cls-3{fill:#f2f2f2;}.cls-4{fill:#b3b3b3;}.cls-5{fill:#999;}.cls-6{fill:#ccc;}.cls-7{opacity:0.8;}.cls-8{fill:#e6e6e6;}.cls-9{fill:#fff;}</style></defs><title>Asset 3</title><g id="Layer_2" data-name="Layer 2"><g id="Capa_1" data-name="Capa 1"><path class="cls-1" d="M6.39,171.09v27.62H20.8v5.78H0v-33.4Z"/><path class="cls-1" d="M47.8,197.42H31.49l-3,7.07H21.9l14.64-33.4h6.64l14.45,33.4H50.76Zm-2.29-5.48-5.82-14-5.91,14Z"/><path class="cls-1" d="M82.39,171.09v33.4H76v-33.4Z"/><path class="cls-1" d="M101.56,176.62c-3,0-5,1.1-5,3.15,0,6.78,17.94,3.1,17.89,15.08,0,6.25-5.44,9.87-12.78,9.87a21.68,21.68,0,0,1-14.13-5.34L90.26,194c3.43,3,8,4.91,11.54,4.91s5.73-1.33,5.73-3.67c0-7-17.94-3-17.94-14.89,0-5.82,5-9.54,12.5-9.54a22.75,22.75,0,0,1,12.07,3.53l-2.58,5.54A21.35,21.35,0,0,0,101.56,176.62Z"/><path class="cls-1" d="M126.94,171.09v27.62h14.41v5.78h-20.8v-33.4Z"/><path class="cls-1" d="M170.83,171.09v5.58H152.75v8.25H169v5.59H152.75v8.39H171.4v5.59h-25v-33.4Z"/><path class="cls-1" d="M201.41,171.09v5.68H191v27.72h-6.44V176.77h-10.4v-5.68Z"/><path class="cls-1" d="M224.35,197.42H208l-3,7.07h-6.63l14.64-33.4h6.64l14.45,33.4h-6.87Zm-2.29-5.48-5.82-14-5.91,14Z"/><path class="cls-2" d="M3.32,133.75v25.42H.42V133.75Z"/><path class="cls-2" d="M28.27,133.75v2.68H13.93V145H26.75v2.65H13.93v8.86H28.74v2.69H11V133.75Z"/><path class="cls-2" d="M42,136.47c-3.27,0-5.41,1.31-5.41,3.49,0,6.6,14.3,3.16,14.27,12.38,0,4.21-3.74,6.94-9.19,6.94A14.51,14.51,0,0,1,32,155.39l1.31-2.51a12.73,12.73,0,0,0,8.46,3.56c3.66,0,6-1.49,6-4,0-6.79-14.27-3.19-14.27-12.31,0-4,3.52-6.53,8.79-6.53A15,15,0,0,1,50.28,136l-1.23,2.58A13.41,13.41,0,0,0,42,136.47Z"/><path class="cls-3" d="M115,34a62.09,62.09,0,0,0-50.37,98.42c6.47-3.4,13.76-5.53,20.45-3,6.11,2.27,10.51,8.09,17.08,8.66,7.25.62,13.43-5.52,20.71-5.51,5.84,0,11,4,16.86,3.89,7.3-.12,13-6.49,20.29-6.88a15.88,15.88,0,0,1,6.57,1.14A62.11,62.11,0,0,0,115,34Z"/><path d="M103.24,138.59c-.36,0-.72,0-1.08-.05-4-.34-7.23-2.58-10.36-4.75A32.57,32.57,0,0,0,85,129.85c-5.57-2.07-12.33-1.06-20.08,3l-.35.19-.23-.32A62.55,62.55,0,1,1,167,131l-.2.3-.34-.12a15.54,15.54,0,0,0-6.39-1.12c-3.47.19-6.67,1.82-9.76,3.39-3.3,1.69-6.71,3.43-10.54,3.49a25.3,25.3,0,0,1-8.69-2,25.1,25.1,0,0,0-8.18-1.92h0c-3.38,0-6.61,1.41-9.73,2.76S106.73,138.59,103.24,138.59Zm-24.3-10.7A18,18,0,0,1,85.28,129a32.77,32.77,0,0,1,7,4.05c3.17,2.19,6.17,4.26,9.92,4.58s7-1.13,10.56-2.67c3.21-1.4,6.53-2.84,10.1-2.84h0a25.73,25.73,0,0,1,8.49,2c2.7,1,5.48,2,8.37,1.91,3.61-.06,6.78-1.68,10.14-3.39,3.17-1.62,6.46-3.29,10.12-3.49a16.13,16.13,0,0,1,6.42,1.05A61.66,61.66,0,1,0,64.8,131.87C70,129.22,74.68,127.89,78.94,127.89Z"/><path class="cls-4" d="M151.77,11H99.61a.45.45,0,1,1,0-.9h52.16a.45.45,0,1,1,0,.9Z"/><path class="cls-4" d="M151.77,18.63H99.61a.46.46,0,0,1-.45-.46.45.45,0,0,1,.45-.45h52.16a.45.45,0,0,1,.45.45A.46.46,0,0,1,151.77,18.63Z"/><path class="cls-4" d="M147.94,14.8H95.79a.46.46,0,0,1-.46-.45.47.47,0,0,1,.46-.46h52.15a.46.46,0,0,1,.46.46A.45.45,0,0,1,147.94,14.8Z"/><path class="cls-5" d="M84.31,3a3.66,3.66,0,0,0-7.07-.05"/><path d="M84.08,3.06A3.41,3.41,0,0,0,77.48,3L77,2.87a3.9,3.9,0,0,1,7.53,0Z"/><path class="cls-6" d="M75.75,5.86H85.86a3.81,3.81,0,0,1,.59,0,7.65,7.65,0,0,1,4.18,2.19c-.13-.38-.28-.77-.45-1.15-.11-.22-.22-.45-.34-.67-1-2-3.48-2.9-5.15-3.23a3.29,3.29,0,0,0-.54,0H77.37a6.86,6.86,0,0,0-5.64,3.27c-.12.23-.24.45-.34.68a11,11,0,0,0-.46,1.15,7.29,7.29,0,0,1,4.78-2.23Z"/><g class="cls-7"><path class="cls-8" d="M75.71,17.89H85.86a5.65,5.65,0,0,1,.59,0,8.19,8.19,0,0,1,4.64,2.64V10.48a7.28,7.28,0,0,0-.26-1.76,7.91,7.91,0,0,0-4.28-2.53,5.34,5.34,0,0,0-.69-.05H75.65a7.3,7.3,0,0,0-4.91,2.58,6.82,6.82,0,0,0-.26,1.76V20.57A7.65,7.65,0,0,1,75.71,17.89Z"/></g><path class="cls-6" d="M86.55,18.23a4,4,0,0,0-.69-.06H75.65A7.57,7.57,0,0,0,70.48,21v1H91.09V21A8.08,8.08,0,0,0,86.55,18.23Z"/><path d="M91.21,8.6V8.54l0-.08,0,0a10,10,0,0,0-.36-1c-.1-.25-.21-.5-.32-.73a8.11,8.11,0,0,0-5.84-4,3,3,0,0,0-.49,0H77.42a7.58,7.58,0,0,0-6.34,4.07c-.11.24-.22.49-.32.73s-.27.72-.37,1.06l0,0v.1a7.15,7.15,0,0,0-.28,1.89V22.2h.52V21.09a7.35,7.35,0,0,1,5.05-2.79v-.12l.06.11H85.86a4,4,0,0,1,.67.06A7.85,7.85,0,0,1,91,21.09V22.2h.52V10.48A7.45,7.45,0,0,0,91.21,8.6ZM77.38,3.11V3h0l0,.12h6.73a3.15,3.15,0,0,1,.52.05c.88.17,3.86.91,5.07,3.17l.33.66c.1.22.19.45.28.69a7.56,7.56,0,0,0-3.88-1.9,4.66,4.66,0,0,0-.61,0H75.71a7.1,7.1,0,0,0-4.5,1.94c.09-.24.19-.46.29-.69s.21-.44.33-.67A6.71,6.71,0,0,1,77.38,3.11Zm8.48,3.15a5.29,5.29,0,0,1,.67,0,7.7,7.7,0,0,1,4.19,2.47,7.06,7.06,0,0,1,.25,1.7v9.8a8.09,8.09,0,0,0-4.5-2.47c-.23,0-.43,0-.61,0H75.71a7.5,7.5,0,0,0-5.11,2.51v-9.8a6.59,6.59,0,0,1,.25-1.7,7.08,7.08,0,0,1,4.8-2.52Z"/><path class="cls-5" d="M130.94,87.31a18.62,18.62,0,0,1,10.68,3.44s0,0,0,0L131,78.92,120.45,90.56l-.13.14A19,19,0,0,1,130.94,87.31Z"/><path d="M141.6,91l-.12-.09a18.43,18.43,0,0,0-10.54-3.39,18.76,18.76,0,0,0-10.48,3.35l-.31-.37.13-.13L131,78.56l10.86,12-.15.17.19,0,0,.12Zm-10.66-4a19.17,19.17,0,0,1,9.33,2.51L131,79.28l-9.29,10.27A19.25,19.25,0,0,1,130.94,87.07Z"/><rect class="cls-5" x="68.79" y="27.58" width="23.34" height="3.04" rx="1.1"/><path d="M90.62,30.86H70.31a1.76,1.76,0,0,1,0-3.52H90.62a1.76,1.76,0,0,1,0,3.52Zm-20.31-3a1.28,1.28,0,0,0,0,2.56H90.62a1.28,1.28,0,1,0,0-2.56Z"/><rect class="cls-5" x="68.79" y="22.07" width="23.34" height="3.04" rx="1.1"/><path d="M90.62,25.36H70.31a1.77,1.77,0,0,1,0-3.53H90.62a1.77,1.77,0,0,1,0,3.53Zm-20.31-3a1.28,1.28,0,0,0,0,2.55H90.62a1.28,1.28,0,1,0,0-2.55Z"/><polyline class="cls-6" points="91.24 136.35 91.24 30.62 70.31 30.62 70.31 131.6 102.79 138.9 131.24 145.44 165.29 132.25 165.29 104.15 131.24 90.08 115.04 97.93 115.04 98.14 115.04 103.69 111.16 105.77 111.16 100.05 111.16 99.81 91.24 109.47"/><path d="M95.25,137.51l-.19,0-25-5.68V30.38H91.48v78.7l19.92-9.65v5.94l3.4-1.82V97.78l16.43-8L165.53,104v28.43l-.15.06-34.12,13.21-.07,0-28.48-6.47-.29-.39m1,.06,27.81,6.32,33.83-13.11V104.31l-33.8-14-16,7.74v5.76l-4.37,2.34v-6l-19.43,9.42v26.54l3.71.84m-24.64-5.6L91,136.05V30.86H70.55Z"/><rect x="131" y="112.12" width="0.48" height="32.73"/><rect class="cls-6" x="70.94" y="25.11" width="19.06" height="2.46"/><path d="M90.24,27.82H70.7V24.87H90.24Zm-19.06-.48H89.75v-2H71.18Z"/><path class="cls-5" d="M141.62,90.75a18.3,18.3,0,0,0-21.36,0l-.05,0v9.07L134,99.9h7.72V90.83Z"/><path d="M142,100.15h-8L120,100.09V90.66l.14-.11a18.59,18.59,0,0,1,21.66,0h0l.21.16Zm-21.53-.54,13.57,0h7.48l0-8.72a18.09,18.09,0,0,0-21,0Z"/><path class="cls-5" d="M140.89,99.82c-2.21-1.75-5.84-2.89-9.94-2.89s-7.72,1.14-9.94,2.89l0,0v14.81H121c2.21-1.76,5.85-2.92,10-2.92s7.77,1.16,10,2.92h0V99.9Z"/><path d="M141.24,114.9h-.32l-.08-.05c-2.25-1.79-5.92-2.86-9.83-2.86s-7.57,1.07-9.82,2.86l-.07.05h-.39V99.74l.13-.11c2.33-1.84,6.11-2.94,10.09-2.94s7.76,1.1,10.09,2.94l.2.16Zm-20-14.93v14.26a17.12,17.12,0,0,1,9.8-2.73,17.3,17.3,0,0,1,9.75,2.68l0-14.17c-2.25-1.78-5.91-2.84-9.79-2.84S123.47,98.22,121.21,100Z"/><path d="M140.85,102.22l-.11-.08c-2.25-1.78-5.91-2.84-9.79-2.84s-7.54,1.06-9.79,2.84l0,0-.3-.38,0,0c2.33-1.85,6.11-3,10.09-3s7.76,1.1,10.09,3l.11.08Z"/><rect class="cls-9" x="78.36" y="35.85" width="4.22" height="7.76"/><path d="M82.82,43.86H78.11V35.61h4.71Zm-4.22-.49h3.73V36.09H78.6Z"/><polygon class="cls-9" points="158.88 120.74 154.66 121.65 154.66 113.88 158.88 114.79 158.88 120.74"/><path d="M159.13,121l-4.71.91v-8.25l4.71.91Zm-4.22.42,3.73-.91V115l-3.73-.91Z"/><path class="cls-2" d="M160.06,129.59c-7.29.39-13,6.76-20.29,6.88-5.84.09-11-3.89-16.86-3.89-7.28,0-13.46,6.13-20.71,5.51-6.57-.57-11-6.39-17.08-8.66-6.69-2.5-14-.37-20.45,3a62.09,62.09,0,0,0,102-1.73A15.88,15.88,0,0,0,160.06,129.59Z"/><path d="M115,158.71a62.77,62.77,0,0,1-50.74-26L64,132.3l.46-.24c8-4.2,15-5.23,20.83-3.06a32.77,32.77,0,0,1,7,4.05c3.17,2.19,6.17,4.26,9.92,4.58s7-1.13,10.56-2.67c3.21-1.4,6.53-2.84,10.1-2.84h0a25.73,25.73,0,0,1,8.49,2c2.7,1,5.49,2,8.37,1.91,3.61-.06,6.78-1.68,10.14-3.39,3.17-1.62,6.46-3.29,10.12-3.49h0a16.59,16.59,0,0,1,6.76,1.17l.54.21L167,131A62.5,62.5,0,0,1,115,158.71Zm-49.7-26.09A61.65,61.65,0,0,0,165.93,131a15.16,15.16,0,0,0-5.85-.92h0c-3.47.19-6.67,1.82-9.76,3.39-3.3,1.69-6.71,3.43-10.54,3.49a25.3,25.3,0,0,1-8.69-2,25.1,25.1,0,0,0-8.18-1.92h0c-3.38,0-6.61,1.41-9.73,2.76-3.5,1.52-7.11,3.08-11,2.75S94.93,136,91.8,133.79A32.57,32.57,0,0,0,85,129.85C79.5,127.82,72.9,128.75,65.34,132.62Z"/></g></g></svg>