<svg xmlns="http://www.w3.org/2000/svg" viewBox="0 0 355.77 259.67"><defs><style>.cls-1{fill:#fff;}.cls-2{fill:none;}</style></defs><title>Asset 7</title><g id="Layer_2" data-name="Layer 2"><g id="Capa_1" data-name="Capa 1"><rect width="355.77" height="259.67"/><path class="cls-1" d="M64.35,198.56v27.63H78.76V232H58v-33.4Z"/><path class="cls-1" d="M105.76,224.9H89.44l-3,7.06H79.85l14.65-33.4h6.63L115.59,232h-6.88Zm-2.29-5.49-5.82-14-5.92,14Z"/><path class="cls-1" d="M140.34,198.56V232H134v-33.4Z"/><path class="cls-1" d="M159.52,204.09c-3,0-5,1.1-5,3.15,0,6.78,17.94,3.1,17.9,15.08,0,6.25-5.44,9.88-12.79,9.88a21.68,21.68,0,0,1-14.12-5.35l2.67-5.39c3.43,3,8,4.92,11.55,4.92s5.72-1.34,5.72-3.68c0-7-17.94-3-17.94-14.88,0-5.82,5-9.55,12.5-9.55a22.7,22.7,0,0,1,12.07,3.54l-2.57,5.53A21.39,21.39,0,0,0,159.52,204.09Z"/><path class="cls-1" d="M184.9,198.56v27.63h14.4V232H178.5v-33.4Z"/><path class="cls-1" d="M228.79,198.56v5.58H210.7v8.26h16.22V218H210.7v8.4h18.66V232H204.31v-33.4Z"/><path class="cls-1" d="M259.36,198.56v5.68H249V232h-6.44V204.24h-10.4v-5.68Z"/><path class="cls-1" d="M282.31,224.9H266L263,232H256.4l14.65-33.4h6.63L292.14,232h-6.87ZM280,219.41l-5.82-14-5.92,14Z"/><path class="cls-1" d="M61.28,161.22v25.42H58.37V161.22Z"/><path class="cls-1" d="M86.23,161.22v2.69H71.88v8.53H84.7v2.65H71.88V184H86.7v2.69H69V161.22Z"/><path class="cls-1" d="M100,163.94c-3.27,0-5.41,1.31-5.41,3.49,0,6.61,14.31,3.16,14.27,12.38,0,4.21-3.74,6.94-9.19,6.94a14.51,14.51,0,0,1-9.73-3.89l1.31-2.5a12.76,12.76,0,0,0,8.46,3.55c3.67,0,6-1.48,6-3.95,0-6.79-14.27-3.2-14.27-12.31,0-4,3.52-6.54,8.78-6.54a15,15,0,0,1,8.06,2.36L107,166.05A13.41,13.41,0,0,0,100,163.94Z"/><path d="M173,61.51a62.09,62.09,0,0,0-50.37,98.42c6.47-3.4,13.77-5.52,20.46-3,6.1,2.27,10.5,8.09,17.08,8.66,7.25.62,13.42-5.51,20.71-5.51,5.84,0,11,4,16.86,3.89,7.3-.12,13-6.49,20.28-6.88a15.92,15.92,0,0,1,6.58,1.14A62.12,62.12,0,0,0,173,61.51Z"/><path class="cls-1" d="M161.19,166.06c-.35,0-.71,0-1.07-.05-4-.34-7.23-2.58-10.36-4.74a32.68,32.68,0,0,0-6.84-4c-5.57-2.07-12.33-1.06-20.09,3l-.35.18-.23-.32A62.56,62.56,0,1,1,225,158.46l-.2.29-.34-.12a15.52,15.52,0,0,0-6.38-1.12c-3.48.19-6.67,1.82-9.76,3.4-3.3,1.68-6.72,3.42-10.55,3.48a25.23,25.23,0,0,1-8.68-2,24.66,24.66,0,0,0-8.18-1.92h0c-3.39,0-6.62,1.4-9.74,2.75S164.68,166.06,161.19,166.06ZM136.9,155.37a17.89,17.89,0,0,1,6.33,1.1,33,33,0,0,1,7,4.05c3.18,2.19,6.17,4.26,9.93,4.59s7-1.14,10.56-2.68c3.21-1.39,6.52-2.83,10.1-2.83h0a25.42,25.42,0,0,1,8.48,2c2.7,1,5.49,2,8.37,1.91,3.62-.06,6.79-1.67,10.14-3.39,3.18-1.61,6.46-3.29,10.13-3.49a16.3,16.3,0,0,1,6.42,1.05,61.66,61.66,0,1,0-101.65,1.7C127.9,156.7,132.63,155.37,136.9,155.37Z"/><path class="cls-1" d="M209.72,38.45H157.57a.47.47,0,0,1-.46-.46.46.46,0,0,1,.46-.45h52.15a.45.45,0,0,1,.46.45A.46.46,0,0,1,209.72,38.45Z"/><path class="cls-1" d="M209.72,46.1H157.57a.46.46,0,1,1,0-.91h52.15a.46.46,0,1,1,0,.91Z"/><path class="cls-1" d="M205.9,42.27H153.74a.45.45,0,0,1-.45-.45.46.46,0,0,1,.45-.46H205.9a.46.46,0,0,1,.45.46A.45.45,0,0,1,205.9,42.27Z"/><path class="cls-1" d="M142.26,30.46a3.65,3.65,0,0,0-7.06-.05"/><path d="M142,30.53a3.41,3.41,0,0,0-6.6-.05l-.46-.14a3.89,3.89,0,0,1,7.53.06Z"/><path class="cls-1" d="M133.7,33.33h10.11c.2,0,.4,0,.6,0a7.75,7.75,0,0,1,4.18,2.19,12,12,0,0,0-.46-1.15c-.1-.22-.22-.45-.33-.67-1.06-2-3.49-2.9-5.15-3.22a2.48,2.48,0,0,0-.54-.06h-6.78a6.88,6.88,0,0,0-5.65,3.28c-.12.22-.23.45-.34.68s-.32.76-.45,1.14a7.25,7.25,0,0,1,4.77-2.23Z"/><path class="cls-1" d="M133.66,45.37h10.15a4,4,0,0,1,.6,0A8.05,8.05,0,0,1,149,48.05V38a6.88,6.88,0,0,0-.26-1.76,7.88,7.88,0,0,0-4.28-2.53,5.34,5.34,0,0,0-.69,0h-10.2a7.3,7.3,0,0,0-4.92,2.58,7.35,7.35,0,0,0-.26,1.76v10.1A7.61,7.61,0,0,1,133.66,45.37Z"/><path class="cls-1" d="M144.5,45.7a4,4,0,0,0-.69-.05h-10.2a7.54,7.54,0,0,0-5.18,2.86v1H149v-1A8,8,0,0,0,144.5,45.7Z"/><path d="M149.16,36.07V36l0-.08h0a10.17,10.17,0,0,0-.36-1.06c-.1-.25-.21-.5-.32-.73a8.12,8.12,0,0,0-5.85-4,4.6,4.6,0,0,0-.49,0h-6.73A7.55,7.55,0,0,0,129,34.13c-.12.24-.23.49-.33.73s-.26.72-.37,1.07l0,0v.11A7.45,7.45,0,0,0,128,38V49.67h.52V48.56a7.39,7.39,0,0,1,5.06-2.79v-.12l0,.12h10.15a3.85,3.85,0,0,1,.67,0,7.87,7.87,0,0,1,4.44,2.74v1.11h.52V38A7,7,0,0,0,149.16,36.07Zm-13.83-5.48v-.13h0l0,.12h6.73a2.37,2.37,0,0,1,.52.06c.89.17,3.86.9,5.07,3.16q.18.33.33.66c.1.23.2.45.29.69a7.55,7.55,0,0,0-3.89-1.9,4.45,4.45,0,0,0-.61,0H133.66a7.05,7.05,0,0,0-4.49,1.94c.08-.23.18-.46.28-.68s.22-.45.34-.68A6.67,6.67,0,0,1,135.33,30.59Zm8.48,3.14a5.16,5.16,0,0,1,.67.05,7.73,7.73,0,0,1,4.19,2.47,6.59,6.59,0,0,1,.25,1.7v9.8a8,8,0,0,0-4.5-2.46,4.55,4.55,0,0,0-.61,0H133.66a7.52,7.52,0,0,0-5.11,2.51V38a6.91,6.91,0,0,1,.25-1.69,7.11,7.11,0,0,1,4.81-2.53Z"/><path class="cls-1" d="M188.89,114.78a18.65,18.65,0,0,1,10.69,3.44s0,0,0,0L188.94,106.4,178.41,118l-.13.13A19.07,19.07,0,0,1,188.89,114.78Z"/><path d="M199.55,118.5l-.12-.08A18.36,18.36,0,0,0,188.89,115a18.77,18.77,0,0,0-10.47,3.34l-.32-.37.13-.13L188.94,106l10.85,12-.15.17.19,0,0,.13Zm-10.66-4a19.18,19.18,0,0,1,9.34,2.51l-9.29-10.29L179.65,117A19.17,19.17,0,0,1,188.89,114.54Z"/><rect class="cls-1" x="126.75" y="55.05" width="23.34" height="3.04" rx="1.1"/><path d="M148.57,58.33h-20.3a1.76,1.76,0,0,1,0-3.52h20.3a1.76,1.76,0,1,1,0,3.52Zm-20.3-3a1.28,1.28,0,0,0,0,2.56h20.3a1.28,1.28,0,0,0,0-2.56Z"/><rect class="cls-1" x="126.75" y="49.55" width="23.34" height="3.04" rx="1.1"/><path d="M148.57,52.83h-20.3a1.77,1.77,0,0,1,0-3.53h20.3a1.77,1.77,0,0,1,0,3.53Zm-20.3-3a1.28,1.28,0,1,0,0,2.55h20.3a1.28,1.28,0,1,0,0-2.55Z"/><polyline class="cls-1" points="149.19 163.82 149.19 58.09 128.26 58.09 128.26 159.07 160.74 166.37 189.2 172.91 223.25 159.72 223.25 131.62 189.2 117.55 172.99 125.41 172.99 125.61 172.99 131.16 169.11 133.25 169.11 127.52 169.11 127.29 149.19 136.94"/><path d="M153.21,165l-.2,0-25-5.68V57.85h21.42v78.71l19.91-9.66v5.94l3.4-1.82v-5.77l16.44-8,34.3,14.18v28.43l-.16.06-34.11,13.21h-.08l-28.47-6.47-.29-.4m1,.06,27.82,6.32L223,159.56V131.78l-33.79-14-16,7.75v5.75l-4.37,2.34v-6l-19.43,9.43v26.53l3.71.84m-24.64-5.59L149,163.52V58.33H128.51Z"/><rect x="188.95" y="139.59" width="0.48" height="32.73"/><rect class="cls-1" x="128.89" y="52.59" width="19.06" height="2.46"/><path d="M148.19,55.29H128.65V52.34h19.54Zm-19.06-.48h18.58v-2H129.13Z"/><path class="cls-1" d="M199.58,118.22a18.31,18.31,0,0,0-21.37,0l0,0v9.07l13.8.06h7.72v-9.07Z"/><path d="M199.94,127.62h-8l-14.05-.05v-9.44l.15-.1a18.53,18.53,0,0,1,21.65,0h0l.22.16Zm-21.53-.54,13.56,0h7.48v-8.71a18.09,18.09,0,0,0-21,0Z"/><path class="cls-1" d="M198.85,127.29c-2.22-1.75-5.85-2.89-9.94-2.89s-7.73,1.14-9.95,2.89l0,0v14.81H179c2.22-1.76,5.86-2.91,10-2.91s7.76,1.15,10,2.91h0V127.38Z"/><path d="M199.2,142.38h-.33l-.08-.06c-2.25-1.79-5.92-2.86-9.82-2.86s-7.58,1.07-9.83,2.86l-.06.06h-.4V127.21l.13-.11c2.34-1.84,6.11-2.94,10.09-2.94s7.76,1.1,10.1,2.94l.2.16Zm-20-14.94V141.7a19,19,0,0,1,19.55,0V127.48c-2.26-1.78-5.92-2.84-9.8-2.84S181.42,125.69,179.16,127.44Z"/><path d="M198.8,129.69l-.1-.08c-2.26-1.78-5.92-2.84-9.8-2.84s-7.53,1.06-9.79,2.84l0,0-.3-.38,0,0c2.34-1.84,6.11-2.94,10.09-2.94s7.76,1.1,10.1,2.94l.11.09Z"/><rect x="136.31" y="63.32" width="4.22" height="7.76"/><path class="cls-1" d="M140.77,71.33h-4.7V63.08h4.7Zm-4.22-.49h3.74V63.56h-3.74Z"/><polygon points="216.84 148.21 212.62 149.12 212.62 141.35 216.84 142.26 216.84 148.21"/><path d="M217.08,148.45l-4.7.91v-8.25l4.7.91Zm-4.22.43,3.74-.91v-5.46l-3.74-.91Z"/><path class="cls-1" d="M218,157.06c-7.29.39-13,6.76-20.28,6.88-5.84.09-11-3.88-16.86-3.89-7.29,0-13.46,6.13-20.71,5.51-6.58-.57-11-6.39-17.08-8.66-6.69-2.49-14-.37-20.46,3a62.1,62.1,0,0,0,102-1.73A15.92,15.92,0,0,0,218,157.06Z"/><path class="cls-2" d="M218,157.51c-3.48.19-6.67,1.82-9.76,3.4-3.3,1.68-6.72,3.42-10.55,3.48a25.23,25.23,0,0,1-8.68-2,24.66,24.66,0,0,0-8.18-1.92h0c-3.39,0-6.62,1.4-9.74,2.75-3.49,1.52-7.1,3.09-11,2.75s-7.23-2.58-10.36-4.74a32.68,32.68,0,0,0-6.84-4c-5.46-2-12.06-1.1-19.61,2.77l.2.28a61.64,61.64,0,0,0,100.21-1.71l.15-.23a15.06,15.06,0,0,0-5.83-.92Z"/><path class="cls-2" d="M223.88,158.43h0l-.15.23Z"/><path class="cls-2" d="M123.3,160.09l.21.28-.2-.28Z"/><path class="cls-1" d="M224.75,157.78c-.12-.05-.24-.08-.36-.12l-.52.77h0l-.16.23-.13.2.13-.2a61.64,61.64,0,0,1-100.21,1.71l.16.22-.16-.22-.21-.28h0l-.54-.74-.36.18-.47.24.31.43A62.56,62.56,0,0,0,225,158.46l.32-.48Z"/><path d="M142.92,157.32a32.68,32.68,0,0,1,6.84,4c3.13,2.16,6.37,4.4,10.36,4.74s7.51-1.23,11-2.75c3.12-1.35,6.35-2.75,9.74-2.75h0a24.66,24.66,0,0,1,8.18,1.92,25.23,25.23,0,0,0,8.68,2c3.83-.06,7.25-1.8,10.55-3.48,3.09-1.58,6.28-3.21,9.76-3.4h0a15.06,15.06,0,0,1,5.83.92l.52-.77a16.23,16.23,0,0,0-6.4-1.06c-3.67.2-7,1.88-10.13,3.49-3.35,1.72-6.52,3.33-10.14,3.39-2.87.06-5.66-.95-8.37-1.91a25.42,25.42,0,0,0-8.48-2h0c-3.58,0-6.89,1.44-10.1,2.83-3.55,1.54-6.9,3-10.56,2.68s-6.75-2.4-9.93-4.59a33,33,0,0,0-7-4.05c-5.73-2.13-12.62-1.16-20.46,2.88l.54.74C130.86,156.22,137.46,155.29,142.92,157.32Z"/></g></g></svg>