<svg xmlns="http://www.w3.org/2000/svg" viewBox="0 0 446.63 259.67"><defs><style>.cls-1{fill:#fff;}.cls-2{fill:none;}</style></defs><title>Asset 8</title><g id="Layer_2" data-name="Layer 2"><g id="Capa_1" data-name="Capa 1"><rect width="446.63" height="259.67"/><path class="cls-1" d="M184.53,141.6v27.62h14.41V175h-20.8V141.6Z"/><path class="cls-1" d="M225.94,167.93H209.62l-3,7.06H200l14.65-33.39h6.63L235.77,175H228.9Zm-2.29-5.49-5.82-14-5.92,14Z"/><path class="cls-1" d="M260.52,141.6V175h-6.39V141.6Z"/><path class="cls-1" d="M279.7,147.13c-3,0-5,1.1-5,3.15,0,6.77,17.94,3.1,17.89,15.08,0,6.25-5.44,9.87-12.79,9.87a21.73,21.73,0,0,1-14.12-5.34l2.67-5.39c3.44,3.05,8,4.91,11.55,4.91s5.72-1.34,5.72-3.67c0-7-17.93-3-17.93-14.89,0-5.82,5-9.54,12.49-9.54a22.75,22.75,0,0,1,12.08,3.53l-2.58,5.53A21.44,21.44,0,0,0,279.7,147.13Z"/><path class="cls-1" d="M305.08,141.6v27.62h14.41V175H298.68V141.6Z"/><path class="cls-1" d="M349,141.6v5.58H330.89v8.25h16.22V161H330.89v8.4h18.65V175H324.49V141.6Z"/><path class="cls-1" d="M379.55,141.6v5.67h-10.4V175H362.7V147.27H352.3V141.6Z"/><path class="cls-1" d="M402.49,167.93H386.18l-3,7.06h-6.64l14.65-33.39h6.63L412.32,175h-6.87Zm-2.29-5.49-5.82-14-5.92,14Z"/><path class="cls-1" d="M180.79,104.25v25.42h-2.91V104.25Z"/><path class="cls-1" d="M205.74,104.25v2.69H191.39v8.53h12.82v2.66H191.39V127h14.82v2.68H188.49V104.25Z"/><path class="cls-1" d="M219.5,107c-3.26,0-5.41,1.3-5.41,3.48,0,6.61,14.31,3.16,14.27,12.39,0,4.21-3.74,6.93-9.18,6.93a14.51,14.51,0,0,1-9.73-3.88l1.3-2.51a12.78,12.78,0,0,0,8.46,3.56c3.67,0,6-1.49,6-4,0-6.79-14.27-3.19-14.27-12.31,0-4,3.52-6.54,8.79-6.54a15,15,0,0,1,8.06,2.37l-1.24,2.57A13.36,13.36,0,0,0,219.5,107Z"/><path d="M91.63,84.52a62.09,62.09,0,0,0-50.37,98.42c6.47-3.4,13.76-5.53,20.45-3,6.11,2.27,10.51,8.09,17.08,8.66,7.25.62,13.43-5.52,20.71-5.51,5.84,0,11,4,16.86,3.88,7.3-.11,13-6.48,20.29-6.87a15.88,15.88,0,0,1,6.57,1.14A62.11,62.11,0,0,0,91.63,84.52Z"/><path class="cls-1" d="M79.83,189.07c-.36,0-.72,0-1.08,0-4-.34-7.23-2.58-10.36-4.75a32.57,32.57,0,0,0-6.84-3.94c-5.57-2.07-12.33-1.06-20.08,3l-.35.19-.23-.32a62.55,62.55,0,1,1,102.71-1.75l-.2.3-.34-.13a15.69,15.69,0,0,0-6.39-1.11c-3.47.19-6.67,1.82-9.76,3.39-3.3,1.69-6.71,3.43-10.54,3.49a25.19,25.19,0,0,1-8.68-2,25.22,25.22,0,0,0-8.19-1.92h0c-3.38,0-6.61,1.41-9.73,2.76S83.32,189.07,79.83,189.07Zm-24.3-10.7a18,18,0,0,1,6.34,1.11,32.53,32.53,0,0,1,7,4.05c3.17,2.19,6.17,4.26,9.92,4.58s7-1.14,10.57-2.67c3.2-1.4,6.52-2.84,10.09-2.84h0a25.67,25.67,0,0,1,8.49,2c2.7,1,5.48,2,8.37,1.91,3.62-.06,6.79-1.68,10.14-3.39,3.18-1.62,6.46-3.29,10.12-3.49a16.13,16.13,0,0,1,6.42,1A61.67,61.67,0,1,0,41.4,182.35C46.54,179.7,51.27,178.37,55.53,178.37Z"/><path class="cls-1" d="M128.36,61.45H76.21a.45.45,0,0,1-.46-.45.46.46,0,0,1,.46-.46h52.15a.47.47,0,0,1,.46.46A.46.46,0,0,1,128.36,61.45Z"/><path class="cls-1" d="M128.36,69.11H76.21a.46.46,0,0,1-.46-.46.45.45,0,0,1,.46-.45h52.15a.46.46,0,0,1,.46.45A.47.47,0,0,1,128.36,69.11Z"/><path class="cls-1" d="M124.53,65.28H72.38a.46.46,0,1,1,0-.91h52.15a.46.46,0,1,1,0,.91Z"/><path class="cls-1" d="M60.9,53.47a3.66,3.66,0,0,0-7.07,0"/><path d="M60.67,53.54a3.41,3.41,0,0,0-6.6,0l-.47-.14a3.9,3.9,0,0,1,7.53,0Z"/><path class="cls-1" d="M52.34,56.34H62.45a4,4,0,0,1,.6,0,7.66,7.66,0,0,1,4.17,2.19c-.13-.38-.28-.77-.45-1.15-.11-.22-.22-.45-.34-.67-1.05-2-3.48-2.9-5.15-3.23a3.29,3.29,0,0,0-.54-.05H54a6.87,6.87,0,0,0-5.64,3.27c-.12.23-.24.45-.34.68a11,11,0,0,0-.46,1.15,7.29,7.29,0,0,1,4.78-2.23Z"/><path class="cls-1" d="M52.3,68.37H62.45c.2,0,.4,0,.6,0a8.2,8.2,0,0,1,4.63,2.64V61a6.76,6.76,0,0,0-.26-1.76,7.91,7.91,0,0,0-4.28-2.53,5.34,5.34,0,0,0-.69-.05H52.24a7.3,7.3,0,0,0-4.91,2.58A6.82,6.82,0,0,0,47.07,61V71.05A7.65,7.65,0,0,1,52.3,68.37Z"/><path class="cls-1" d="M63.14,68.71a4,4,0,0,0-.69-.06H52.24a7.57,7.57,0,0,0-5.17,2.87v1H67.68v-1A8.08,8.08,0,0,0,63.14,68.71Z"/><path d="M67.8,59.08V59l0-.08v0c-.11-.35-.23-.71-.37-1.05s-.2-.5-.32-.73a8.11,8.11,0,0,0-5.84-4,3,3,0,0,0-.49,0H54a7.58,7.58,0,0,0-6.34,4.07c-.11.24-.22.49-.32.73s-.26.72-.37,1.06l0,0v.1A7.15,7.15,0,0,0,46.67,61V72.68h.52V71.57a7.35,7.35,0,0,1,5.06-2.79v-.13l.06.12H62.45a4,4,0,0,1,.67.06,7.85,7.85,0,0,1,4.44,2.74v1.11h.52V61A7,7,0,0,0,67.8,59.08ZM54,53.59v-.12h0l0,.12h6.73a3.15,3.15,0,0,1,.52,0c.88.17,3.86.91,5.07,3.17.11.22.23.44.33.66s.2.45.29.69a7.63,7.63,0,0,0-3.89-1.9,4.55,4.55,0,0,0-.61,0H52.3a7.13,7.13,0,0,0-4.5,1.93c.09-.23.19-.45.29-.68s.21-.44.33-.67A6.71,6.71,0,0,1,54,53.59Zm8.48,3.15a5.16,5.16,0,0,1,.67,0,7.7,7.7,0,0,1,4.19,2.47,7,7,0,0,1,.25,1.7v9.8a8.06,8.06,0,0,0-4.5-2.47c-.23,0-.43,0-.61,0H52.3a7.5,7.5,0,0,0-5.11,2.51V61a6.59,6.59,0,0,1,.25-1.7,7.08,7.08,0,0,1,4.81-2.52Z"/><path class="cls-1" d="M107.53,137.79a18.68,18.68,0,0,1,10.69,3.44s0,0,0,0L107.58,129.4,97,141l-.13.14A19,19,0,0,1,107.53,137.79Z"/><path d="M118.19,141.51l-.12-.09A18.43,18.43,0,0,0,107.53,138a18.79,18.79,0,0,0-10.48,3.35l-.31-.37.13-.13L107.58,129l10.85,12-.15.17.19,0,0,.13Zm-10.66-4a19.21,19.21,0,0,1,9.34,2.51l-9.3-10.3L98.28,140A19.25,19.25,0,0,1,107.53,137.55Z"/><rect class="cls-1" x="45.38" y="78.06" width="23.34" height="3.04" rx="1.1"/><path d="M67.21,81.34H46.9a1.76,1.76,0,1,1,0-3.52H67.21a1.76,1.76,0,0,1,0,3.52Zm-20.31-3a1.28,1.28,0,0,0,0,2.55H67.21a1.28,1.28,0,1,0,0-2.55Z"/><rect class="cls-1" x="45.38" y="72.55" width="23.34" height="3.04" rx="1.1"/><path d="M67.21,75.83H46.9a1.76,1.76,0,1,1,0-3.52H67.21a1.76,1.76,0,1,1,0,3.52Zm-20.31-3a1.28,1.28,0,0,0,0,2.56H67.21a1.28,1.28,0,1,0,0-2.56Z"/><polyline class="cls-1" points="67.83 186.83 67.83 81.1 46.9 81.1 46.9 182.08 79.38 189.38 107.83 195.92 141.88 182.73 141.88 154.63 107.83 140.56 91.63 148.41 91.63 148.62 91.63 154.17 87.75 156.25 87.75 150.53 87.75 150.29 67.83 159.95"/><path d="M71.84,188l-.19,0-25-5.68V80.85H68.07v78.71L88,149.91v5.94l3.4-1.82v-5.77l16.44-8,34.3,14.18V182.9L142,183l-34.12,13.21-.07,0L79.3,189.68l-.29-.39m1,.06,27.82,6.32,33.82-13.11V154.79l-33.8-14-16,7.74v5.75l-4.36,2.35v-6L68.07,160.1v26.54l3.71.84m-24.64-5.6,20.45,4.65V81.34H47.14Z"/><rect x="107.59" y="162.6" width="0.48" height="32.73"/><rect class="cls-1" x="47.53" y="75.59" width="19.06" height="2.46"/><path d="M66.83,78.3H47.29v-3H66.83Zm-19.06-.48H66.34v-2H47.77Z"/><path class="cls-1" d="M118.22,141.23a18.31,18.31,0,0,0-21.37,0l0,0v9.07l13.81,0h7.72v-9.07Z"/><path d="M118.57,150.63h-8l-14-.06v-9.43l.14-.11a18.59,18.59,0,0,1,21.66,0h0l.21.16ZM97,150.09l13.57,0h7.48l0-8.72a18.09,18.09,0,0,0-21,0Z"/><path class="cls-1" d="M117.48,150.3c-2.21-1.75-5.84-2.89-9.94-2.89s-7.72,1.14-9.94,2.89l0,0v14.81h.07c2.21-1.76,5.86-2.92,10-2.92s7.76,1.16,10,2.92h0V150.38Z"/><path d="M117.83,165.38h-.32l-.08,0c-2.25-1.79-5.92-2.86-9.82-2.86s-7.58,1.07-9.83,2.86l-.07,0h-.39V150.22l.13-.11c2.34-1.84,6.11-2.94,10.09-2.94s7.76,1.1,10.09,2.94l.2.16Zm-20-14.93v14.26a19,19,0,0,1,19.55-.05l0-14.17c-2.25-1.78-5.91-2.84-9.79-2.84S100.06,148.7,97.8,150.45Z"/><path d="M117.44,152.7l-.11-.08c-2.25-1.78-5.91-2.84-9.79-2.84s-7.54,1.06-9.79,2.84l0,0-.3-.38,0,0c2.33-1.85,6.11-3,10.09-3s7.76,1.1,10.09,3l.11.08Z"/><rect x="54.95" y="86.33" width="4.22" height="7.76"/><path class="cls-1" d="M59.41,94.34h-4.7V86.09h4.7Zm-4.22-.49h3.73V86.57H55.19Z"/><polygon points="135.47 171.22 131.25 172.13 131.25 164.36 135.47 165.27 135.47 171.22"/><path d="M135.72,171.46l-4.71.91v-8.25l4.71.91Zm-4.22.42,3.73-.91v-5.46l-3.73-.91Z"/><path class="cls-1" d="M136.65,180.07c-7.29.39-13,6.76-20.29,6.87-5.84.1-11-3.88-16.86-3.88-7.28,0-13.46,6.13-20.71,5.51-6.57-.57-11-6.39-17.08-8.66-6.69-2.5-14-.37-20.45,3a62.1,62.1,0,0,0,102-1.73A15.88,15.88,0,0,0,136.65,180.07Z"/><path class="cls-2" d="M136.67,180.52c-3.47.19-6.67,1.82-9.76,3.39-3.3,1.69-6.71,3.43-10.54,3.49a25.19,25.19,0,0,1-8.68-2,25.22,25.22,0,0,0-8.19-1.92h0c-3.38,0-6.61,1.41-9.73,2.76-3.5,1.52-7.11,3.08-11,2.75s-7.23-2.58-10.36-4.75a32.57,32.57,0,0,0-6.84-3.94c-5.46-2-12-1.1-19.61,2.77l.2.28a61.65,61.65,0,0,0,100.22-1.71l.15-.23a15.11,15.11,0,0,0-5.84-.92Z"/><path class="cls-2" d="M142.52,181.44h0l-.15.23Z"/><path class="cls-2" d="M41.94,183.1c.06.09.14.18.2.28l-.2-.28Z"/><path class="cls-1" d="M143.38,180.78l-.35-.11-.52.77h0l-.16.23-.14.19.14-.19a61.65,61.65,0,0,1-100.22,1.71l.17.22-.17-.22c-.06-.1-.14-.19-.2-.28h0l-.54-.75-.36.19-.46.24.31.43a62.55,62.55,0,0,0,102.71-1.75l.32-.47Z"/><path d="M61.55,180.33a32.57,32.57,0,0,1,6.84,3.94c3.13,2.17,6.37,4.41,10.36,4.75s7.51-1.23,11-2.75c3.12-1.35,6.35-2.76,9.73-2.76h0a25.22,25.22,0,0,1,8.19,1.92,25.19,25.19,0,0,0,8.68,2c3.83-.06,7.24-1.8,10.54-3.49,3.09-1.57,6.29-3.2,9.76-3.39h0a15.11,15.11,0,0,1,5.84.92l.52-.77a16.25,16.25,0,0,0-6.41-1.06c-3.66.2-6.94,1.87-10.12,3.49-3.35,1.71-6.52,3.33-10.14,3.39-2.88.06-5.67-1-8.37-1.91a25.67,25.67,0,0,0-8.49-2h0c-3.57,0-6.89,1.44-10.09,2.84-3.55,1.53-6.9,3-10.57,2.67s-6.75-2.39-9.92-4.58a32.53,32.53,0,0,0-7-4.05c-5.74-2.14-12.62-1.17-20.47,2.87l.54.75C49.5,179.23,56.09,178.3,61.55,180.33Z"/></g></g></svg>