<svg xmlns="http://www.w3.org/2000/svg" viewBox="0 0 383.26 158.71"><defs><style>.cls-1{fill:#fff;}.cls-2{fill:none;}</style></defs><title>Asset 6</title><g id="Layer_2" data-name="Layer 2"><g id="Capa_1" data-name="Capa 1"><path d="M155.47,91.41V119h14.41v5.77H149.07V91.41Z"/><path d="M196.87,117.74H180.56l-3,7.06H171l14.64-33.39h6.64L206.7,124.8h-6.87Zm-2.29-5.48-5.82-14-5.91,14Z"/><path d="M231.46,91.41V124.8h-6.4V91.41Z"/><path d="M250.64,96.94c-3,0-5,1.1-5,3.15,0,6.77,17.94,3.1,17.9,15.08,0,6.25-5.44,9.87-12.79,9.87a21.65,21.65,0,0,1-14.12-5.34l2.67-5.39c3.43,3,8,4.91,11.54,4.91s5.73-1.33,5.73-3.67c0-7-17.94-3-17.94-14.89,0-5.82,5-9.54,12.5-9.54a22.72,22.72,0,0,1,12.07,3.53l-2.58,5.53A21.4,21.4,0,0,0,250.64,96.94Z"/><path d="M276,91.41V119h14.41v5.77h-20.8V91.41Z"/><path d="M319.9,91.41V97H301.82v8.25H318v5.58H301.82v8.4h18.66v5.58H295.43V91.41Z"/><path d="M350.48,91.41v5.67h-10.4V124.8h-6.44V97.08h-10.4V91.41Z"/><path d="M373.43,117.74H357.11l-3,7.06h-6.63l14.65-33.39h6.63l14.46,33.39h-6.87Zm-2.29-5.48-5.82-14-5.92,14Z"/><path d="M151.72,54.06V79.48h-2.9V54.06Z"/><path d="M176.67,54.06v2.69H162.33v8.54h12.82v2.65H162.33V76.8h14.82v2.68H159.42V54.06Z"/><path d="M190.44,56.79c-3.27,0-5.41,1.31-5.41,3.48,0,6.61,14.31,3.16,14.27,12.39,0,4.21-3.74,6.93-9.19,6.93a14.55,14.55,0,0,1-9.73-3.88l1.31-2.51a12.78,12.78,0,0,0,8.46,3.56c3.67,0,5.95-1.49,5.95-4,0-6.79-14.27-3.19-14.27-12.31,0-4,3.53-6.53,8.79-6.53a15,15,0,0,1,8.06,2.36l-1.23,2.57A13.48,13.48,0,0,0,190.44,56.79Z"/><path class="cls-1" d="M62.56,34a62.09,62.09,0,0,0-50.37,98.42c6.47-3.4,13.77-5.53,20.46-3,6.1,2.27,10.5,8.09,17.08,8.66,7.25.62,13.43-5.52,20.71-5.51,5.84,0,11,4,16.86,3.89,7.3-.12,13-6.49,20.28-6.88a15.92,15.92,0,0,1,6.58,1.14A62.12,62.12,0,0,0,62.56,34Z"/><path d="M50.76,138.59c-.35,0-.71,0-1.07-.05-4-.34-7.23-2.58-10.36-4.75a32.83,32.83,0,0,0-6.84-3.94c-5.57-2.07-12.33-1.06-20.09,3l-.35.19-.23-.32A62.56,62.56,0,1,1,125.13,96.15,62.18,62.18,0,0,1,114.53,131l-.2.3-.33-.12a15.57,15.57,0,0,0-6.39-1.12c-3.48.19-6.67,1.82-9.76,3.39-3.3,1.69-6.71,3.43-10.54,3.49a25.3,25.3,0,0,1-8.69-2A25.1,25.1,0,0,0,70.44,133h0c-3.39,0-6.61,1.41-9.74,2.76S54.25,138.59,50.76,138.59Zm-24.29-10.7A18,18,0,0,1,32.81,129a32.7,32.7,0,0,1,7,4.05c3.18,2.19,6.18,4.26,9.93,4.58s7-1.13,10.56-2.67c3.21-1.4,6.53-2.84,10.1-2.84h0a25.79,25.79,0,0,1,8.49,2c2.7,1,5.48,2,8.36,1.91,3.62-.06,6.79-1.68,10.15-3.39,3.17-1.62,6.45-3.29,10.12-3.49a16.13,16.13,0,0,1,6.42,1.05A61.66,61.66,0,1,0,.91,96.15a61.2,61.2,0,0,0,11.42,35.72C17.47,129.22,22.2,127.89,26.47,127.89Z"/><path d="M99.3,11H47.14a.45.45,0,1,1,0-.9H99.3a.45.45,0,0,1,0,.9Z"/><path d="M99.3,18.63H47.14a.46.46,0,0,1-.45-.46.45.45,0,0,1,.45-.45H99.3a.45.45,0,0,1,.45.45A.46.46,0,0,1,99.3,18.63Z"/><path d="M95.47,14.8H43.31a.45.45,0,0,1-.45-.45.46.46,0,0,1,.45-.46H95.47a.46.46,0,0,1,.45.46A.45.45,0,0,1,95.47,14.8Z"/><path d="M31.83,3a3.65,3.65,0,0,0-7.06-.05"/><path class="cls-1" d="M31.6,3.06A3.41,3.41,0,0,0,25,3l-.46-.14a3.9,3.9,0,0,1,7.53,0Z"/><path d="M23.27,5.86H33.39a4,4,0,0,1,.59,0,7.68,7.68,0,0,1,4.18,2.19,11,11,0,0,0-.46-1.15c-.1-.22-.21-.45-.33-.67-1.06-2-3.49-2.9-5.15-3.23a3.29,3.29,0,0,0-.54,0H24.9a6.87,6.87,0,0,0-5.65,3.27c-.12.23-.23.45-.34.68s-.32.77-.45,1.15a7.25,7.25,0,0,1,4.77-2.23Z"/><path d="M23.23,17.89H33.39c.19,0,.39,0,.59,0a8.16,8.16,0,0,1,4.63,2.64V10.48a6.82,6.82,0,0,0-.26-1.76,7.88,7.88,0,0,0-4.28-2.53,5.06,5.06,0,0,0-.68-.05H23.18a7.3,7.3,0,0,0-4.92,2.58A7.28,7.28,0,0,0,18,10.48V20.57A7.65,7.65,0,0,1,23.23,17.89Z"/><path d="M34.07,18.23a3.82,3.82,0,0,0-.68-.06H23.18A7.59,7.59,0,0,0,18,21v1H38.61V21A8,8,0,0,0,34.07,18.23Z"/><path class="cls-1" d="M38.74,8.6V8.54l0-.08v0a10,10,0,0,0-.36-1c-.1-.25-.21-.5-.32-.73a8.12,8.12,0,0,0-5.85-4,2.9,2.9,0,0,0-.48,0H24.94a7.58,7.58,0,0,0-6.33,4.07,7.71,7.71,0,0,0-.32.73,10.35,10.35,0,0,0-.37,1.06l0,0v.1a7.59,7.59,0,0,0-.28,1.89V22.2h.52V21.09a7.35,7.35,0,0,1,5.06-2.79v-.12l.05.11H33.39a4.06,4.06,0,0,1,.67.06,7.83,7.83,0,0,1,4.43,2.74V22.2H39V10.48A7.41,7.41,0,0,0,38.74,8.6ZM24.9,3.11V3h0l0,.12h6.74a3.14,3.14,0,0,1,.51.05c.89.17,3.86.91,5.07,3.17q.18.33.33.66c.1.22.2.45.29.69A7.55,7.55,0,0,0,34,5.78a4.41,4.41,0,0,0-.6,0H23.23a7.05,7.05,0,0,0-4.49,1.94c.09-.24.18-.46.28-.69l.34-.67A6.71,6.71,0,0,1,24.9,3.11Zm8.49,3.15a5.29,5.29,0,0,1,.67,0,7.68,7.68,0,0,1,4.18,2.47,6.59,6.59,0,0,1,.25,1.7v9.8A8.06,8.06,0,0,0,34,17.81c-.22,0-.42,0-.6,0H23.23a7.52,7.52,0,0,0-5.11,2.51v-9.8a7.06,7.06,0,0,1,.25-1.7,7.1,7.1,0,0,1,4.81-2.52Z"/><path d="M78.47,87.31a18.64,18.64,0,0,1,10.68,3.44s0,0,0,0L78.51,78.92,68,90.56l-.13.14A19,19,0,0,1,78.47,87.31Z"/><path class="cls-1" d="M89.13,91,89,90.94a18.48,18.48,0,0,0-10.54-3.39A18.76,18.76,0,0,0,68,90.9l-.32-.37.13-.13L78.51,78.56l10.85,12-.15.17.19,0,0,.12Zm-10.66-4a19.17,19.17,0,0,1,9.33,2.51l-9.29-10.3L69.22,89.55A19.19,19.19,0,0,1,78.47,87.07Z"/><rect x="16.32" y="27.58" width="23.34" height="3.04" rx="1.1"/><path class="cls-1" d="M38.14,30.86H17.84a1.76,1.76,0,0,1,0-3.52h20.3a1.76,1.76,0,1,1,0,3.52Zm-20.3-3a1.28,1.28,0,0,0,0,2.56h20.3a1.28,1.28,0,0,0,0-2.56Z"/><rect x="16.32" y="22.07" width="23.34" height="3.04" rx="1.1"/><path class="cls-1" d="M38.14,25.36H17.84a1.77,1.77,0,0,1,0-3.53h20.3a1.77,1.77,0,1,1,0,3.53Zm-20.3-3a1.28,1.28,0,1,0,0,2.55h20.3a1.28,1.28,0,1,0,0-2.55Z"/><polyline points="38.77 136.35 38.77 30.62 17.84 30.62 17.84 131.6 50.31 138.9 78.77 145.44 112.82 132.25 112.82 104.15 78.77 90.08 62.56 97.93 62.56 98.14 62.56 103.69 58.68 105.77 58.68 100.05 58.68 99.81 38.77 109.47"/><path class="cls-1" d="M42.78,137.51l-.19,0-25-5.68V30.38H39v78.7l19.92-9.65v5.94l3.39-1.82V97.78l16.44-8L113.06,104v28.43l-.15.06L78.79,145.69l-.07,0L50.24,139.2l-.29-.39m1,.06,27.82,6.32,33.83-13.11V104.31l-33.8-14-16,7.74v5.76l-4.37,2.34v-6L39,109.62v26.54l3.71.84m-24.64-5.6,20.44,4.65V30.86H18.08Z"/><rect x="78.53" y="112.12" width="0.48" height="32.73"/><rect x="18.46" y="25.11" width="19.06" height="2.46"/><path class="cls-1" d="M37.76,27.82H18.22V24.87H37.76Zm-19-.48H37.28v-2H18.71Z"/><path d="M89.15,90.75a18.31,18.31,0,0,0-21.37,0l0,0v9.07l13.8.05h7.73V90.83Z"/><path class="cls-1" d="M89.51,100.15h-8l-14-.06V90.66l.14-.11a18.58,18.58,0,0,1,21.65,0h0l.22.16ZM68,99.61l13.56,0H89V90.94a18.09,18.09,0,0,0-21,0Z"/><path d="M88.42,99.82c-2.22-1.75-5.84-2.89-9.94-2.89s-7.73,1.14-10,2.89l0,0v14.81h.07c2.22-1.76,5.86-2.92,10-2.92s7.76,1.16,10,2.92h0V99.9Z"/><path class="cls-1" d="M88.77,114.9h-.33l-.08-.05c-2.25-1.79-5.92-2.86-9.82-2.86s-7.57,1.07-9.82,2.86l-.07.05h-.4V99.74l.13-.11c2.34-1.84,6.11-2.94,10.1-2.94s7.75,1.1,10.09,2.94l.2.16ZM68.74,100v14.26a17.1,17.1,0,0,1,9.8-2.73,17.27,17.27,0,0,1,9.74,2.68V100c-2.25-1.78-5.91-2.84-9.79-2.84S71,98.22,68.74,100Z"/><path class="cls-1" d="M88.37,102.22l-.1-.08c-2.25-1.78-5.91-2.84-9.79-2.84s-7.54,1.06-9.8,2.84l0,0-.3-.38,0,0c2.34-1.85,6.11-3,10.1-3s7.75,1.1,10.09,3l.11.08Z"/><rect class="cls-1" x="25.88" y="35.85" width="4.22" height="7.76"/><path d="M30.34,43.86h-4.7V35.61h4.7Zm-4.22-.49h3.74V36.09H26.12Z"/><polygon class="cls-1" points="106.41 120.74 102.19 121.65 102.19 113.88 106.41 114.79 106.41 120.74"/><path d="M106.65,121l-4.7.91v-8.25l4.7.91Zm-4.22.42,3.74-.91V115l-3.74-.91Z"/><path d="M107.58,129.59c-7.28.39-13,6.76-20.28,6.88-5.84.09-11-3.89-16.86-3.89-7.28,0-13.46,6.13-20.71,5.51-6.58-.57-11-6.39-17.08-8.66-6.69-2.5-14-.37-20.46,3a62.1,62.1,0,0,0,102-1.73A15.92,15.92,0,0,0,107.58,129.59Z"/><path class="cls-2" d="M107.61,130c-3.48.19-6.67,1.82-9.76,3.39-3.3,1.69-6.71,3.43-10.54,3.49a25.3,25.3,0,0,1-8.69-2A25.1,25.1,0,0,0,70.44,133h0c-3.39,0-6.61,1.41-9.74,2.76-3.49,1.52-7.1,3.08-11,2.75s-7.23-2.58-10.36-4.75a32.83,32.83,0,0,0-6.84-3.94c-5.46-2-12.06-1.1-19.61,2.77l.2.28a61.64,61.64,0,0,0,100.21-1.71l.16-.23a15.14,15.14,0,0,0-5.84-.92Z"/><path class="cls-2" d="M113.45,131h0l-.16.23Z"/><path class="cls-2" d="M12.87,132.62l.21.28-.2-.28Z"/><path d="M114.32,130.3l-.36-.11-.51.77h0l-.16.23-.13.19.13-.19A61.64,61.64,0,0,1,13.08,132.9l.16.22-.16-.22-.21-.28h0l-.54-.74-.36.18-.47.24.31.43A62.56,62.56,0,0,0,114.54,131l.31-.47Z"/><path class="cls-1" d="M32.49,129.85a32.83,32.83,0,0,1,6.84,3.94c3.13,2.17,6.37,4.41,10.36,4.75s7.51-1.23,11-2.75C63.82,134.44,67,133,70.43,133h0A25.1,25.1,0,0,1,78.62,135a25.3,25.3,0,0,0,8.69,2c3.83-.06,7.24-1.8,10.54-3.49,3.09-1.57,6.28-3.2,9.76-3.39h0a15.14,15.14,0,0,1,5.84.92l.51-.77a16.2,16.2,0,0,0-6.4-1.06c-3.67.2-7,1.87-10.12,3.49-3.36,1.71-6.53,3.33-10.15,3.39-2.87.06-5.66-.95-8.36-1.91a25.79,25.79,0,0,0-8.49-2h0c-3.57,0-6.89,1.44-10.1,2.84-3.55,1.54-6.89,3-10.56,2.67s-6.75-2.39-9.93-4.58a32.7,32.7,0,0,0-7-4.05c-5.74-2.14-12.63-1.17-20.47,2.88l.54.74C20.43,128.75,27,127.82,32.49,129.85Z"/></g></g></svg>