<svg xmlns="http://www.w3.org/2000/svg" viewBox="0 0 383.25 158.73"><defs><style>.cls-1{fill:#d8ecf5;}.cls-2{fill:#fff;}.cls-3{fill:#f2c963;}.cls-4{fill:#b29dbf;}.cls-5{fill:#cdc2d3;}.cls-6{opacity:0.8;}.cls-7{fill:#657a8c;}</style></defs><title>Asset 1</title><g id="Layer_2" data-name="Layer 2"><g id="Layer_1-2" data-name="Layer 1"><g id="Capa_1" data-name="Capa 1"><path class="cls-1" d="M62.55,34a62.11,62.11,0,0,0-50.37,98.42c6.47-3.4,13.77-5.53,20.46-3,6.1,2.27,10.5,8.09,17.08,8.66,7.25.62,13.43-5.52,20.71-5.51,5.84,0,11,4,16.86,3.89,7.3-.12,13-6.49,20.28-6.88a15.9,15.9,0,0,1,6.58,1.14A62.12,62.12,0,0,0,62.55,34Z"/><path d="M50.75,138.61a7.74,7.74,0,0,1-1.07-.05c-4-.34-7.23-2.58-10.36-4.75a33.21,33.21,0,0,0-6.84-3.94c-5.58-2.08-12.33-1.06-20.09,3l-.35.19-.23-.32A62.55,62.55,0,1,1,114.52,131l-.2.3-.33-.12a15.65,15.65,0,0,0-6.39-1.12c-3.47.19-6.67,1.82-9.76,3.39-3.3,1.69-6.71,3.43-10.54,3.49a25.09,25.09,0,0,1-8.69-2A25.28,25.28,0,0,0,70.43,133h0c-3.39,0-6.61,1.41-9.74,2.76S54.24,138.61,50.75,138.61Zm-24.29-10.7A18.2,18.2,0,0,1,32.8,129a32.73,32.73,0,0,1,7,4c3.18,2.19,6.18,4.26,9.93,4.58s7-1.13,10.56-2.67c3.21-1.4,6.53-2.84,10.1-2.84h0a25.82,25.82,0,0,1,8.49,2c2.7,1,5.5,2,8.36,1.91,3.62-.06,6.79-1.68,10.15-3.39,3.17-1.62,6.45-3.29,10.12-3.49a16.14,16.14,0,0,1,6.42,1.05,61.65,61.65,0,1,0-101.61,1.67C17.46,129.24,22.19,127.91,26.46,127.91Z"/><path class="cls-2" d="M155.46,91v27.6h14.41v5.77H149.06V91Z"/><path class="cls-2" d="M196.86,117.33H180.55l-3,7.06H171L185.6,91h6.64l14.45,33.4h-6.87Zm-2.29-5.49-5.82-14-5.91,14Z"/><path class="cls-2" d="M231.45,91v33.4h-6.4V91Z"/><path class="cls-2" d="M250.63,96.53c-3,0-5,1.1-5,3.15,0,6.77,17.94,3.1,17.9,15.07,0,6.25-5.44,9.88-12.79,9.88a21.66,21.66,0,0,1-14.12-5.34l2.67-5.4c3.43,3.06,8,4.92,11.54,4.92s5.73-1.34,5.73-3.67c0-7-17.94-3-17.94-14.89,0-5.82,5-9.54,12.5-9.54a22.72,22.72,0,0,1,12.07,3.53l-2.58,5.53A21.43,21.43,0,0,0,250.63,96.53Z"/><path class="cls-2" d="M276,91v27.6H290.4v5.77H269.6V91Z"/><path class="cls-2" d="M319.89,91v5.59H301.81v8.25H318v5.58H301.81v8.4h18.66v5.58H295.42V91Z"/><path class="cls-2" d="M350.47,91V96.7h-10.4v27.72h-6.44V96.67h-10.4V91Z"/><path class="cls-2" d="M373.42,117.33H357.1l-3,7.06h-6.63L362.16,91h6.63l14.46,33.4h-6.87Zm-2.29-5.49-5.82-14-5.92,14Z"/><path class="cls-2" d="M151.71,53.65V79.07h-2.9V53.65Z"/><path class="cls-2" d="M176.66,53.65v2.69H162.32v8.53h12.82v2.65H162.32v8.86h14.82v2.69H159.41V53.65Z"/><path class="cls-2" d="M190.43,56.38c-3.27,0-5.41,1.3-5.41,3.48,0,6.61,14.31,3.16,14.27,12.38,0,4.22-3.74,6.94-9.19,6.94a14.54,14.54,0,0,1-9.73-3.88l1.31-2.51a12.73,12.73,0,0,0,8.46,3.56c3.67,0,6-1.49,6-4,0-6.79-14.27-3.2-14.27-12.31,0-4,3.53-6.54,8.79-6.54a15.1,15.1,0,0,1,8.06,2.36l-1.23,2.58A13.46,13.46,0,0,0,190.43,56.38Z"/><path class="cls-3" d="M99.29,11H47.13a.45.45,0,0,1-.45-.45.46.46,0,0,1,.45-.45H99.29a.45.45,0,0,1,.45.45A.45.45,0,0,1,99.29,11Z"/><path class="cls-3" d="M99.29,18.65H47.13a.46.46,0,0,1-.45-.46.46.46,0,0,1,.45-.45H99.29a.46.46,0,0,1,0,.91Z"/><path class="cls-3" d="M95.46,14.82H43.31a.45.45,0,0,1-.46-.44h0a.47.47,0,0,1,.46-.46H95.46a.46.46,0,0,1,.45.46A.45.45,0,0,1,95.46,14.82Z"/><path class="cls-4" d="M31.82,3a3.65,3.65,0,0,0-7.06,0"/><path d="M31.59,3.08A3.41,3.41,0,0,0,25,3l-.46-.14a3.9,3.9,0,0,1,7.53,0Z"/><path class="cls-5" d="M23.26,5.88H34a7.69,7.69,0,0,1,4.18,2.19,10.21,10.21,0,0,0-.46-1.15c-.1-.22-.21-.45-.33-.67-1.06-2-3.48-2.9-5.15-3.23a4.86,4.86,0,0,0-.54,0H24.89a6.9,6.9,0,0,0-5.65,3.27c-.12.23-.23.45-.33.68-.17.38-.32.76-.46,1.15a7.3,7.3,0,0,1,4.77-2.23Z"/><g class="cls-6"><path class="cls-3" d="M23.22,17.91H33.38a5.8,5.8,0,0,1,.59,0,8.17,8.17,0,0,1,4.63,2.64v-10a6.25,6.25,0,0,0-.26-1.76,7.85,7.85,0,0,0-4.28-2.53c-.22,0-.45,0-.68,0H23.17a7.33,7.33,0,0,0-4.91,2.58A7.58,7.58,0,0,0,18,10.5V20.59A7.71,7.71,0,0,1,23.22,17.91Z"/></g><path class="cls-5" d="M34.06,18.25a3.82,3.82,0,0,0-.68-.06H23.17A7.65,7.65,0,0,0,18,21v1H38.6V21A8,8,0,0,0,34.06,18.25Z"/><path d="M38.73,8.62V8.48h0a9.19,9.19,0,0,0-.36-1c-.1-.25-.21-.5-.32-.73a8.12,8.12,0,0,0-5.85-4H24.93A7.59,7.59,0,0,0,18.6,6.82c-.11.24-.22.49-.32.73s-.27.72-.37,1.06h0v.1a8.07,8.07,0,0,0-.28,1.89V22.22h.53V21.11a7.34,7.34,0,0,1,5.05-2.79V18.2l.05.11H33.38c.23,0,.45,0,.67.06a7.82,7.82,0,0,1,4.43,2.74v1.11H39V10.5A7.1,7.1,0,0,0,38.73,8.62ZM24.89,3.13V3h0v.12h6.74a4.36,4.36,0,0,1,.52,0c.88.17,3.85.91,5.06,3.17q.18.33.33.66c.1.22.2.45.29.69A7.61,7.61,0,0,0,34,5.8H23.22a7.12,7.12,0,0,0-4.49,1.94c.09-.24.18-.46.29-.69s.21-.44.33-.67A6.76,6.76,0,0,1,24.89,3.13Zm8.49,3.15c.23,0,.45,0,.67,0a7.65,7.65,0,0,1,4.18,2.47,6.19,6.19,0,0,1,.25,1.7v9.8A8.05,8.05,0,0,0,34,17.83H23.22a7.55,7.55,0,0,0-5.1,2.51v-9.8a7.58,7.58,0,0,1,.24-1.7,7.14,7.14,0,0,1,4.81-2.52Z"/><path class="cls-4" d="M78.46,87.33a18.73,18.73,0,0,1,10.68,3.44h0L78.5,78.94,68,90.58l-.13.14A19.06,19.06,0,0,1,78.46,87.33Z"/><path d="M89.12,91,89,91a18.5,18.5,0,0,0-10.54-3.39A18.84,18.84,0,0,0,68,90.92l-.32-.37.14-.13,10.7-11.84,10.85,12-.15.17h.19v.12ZM78.46,87a19.17,19.17,0,0,1,9.33,2.51L78.5,79.23,69.21,89.57a19.37,19.37,0,0,1,9.25-2.48Z"/><rect class="cls-4" x="16.31" y="27.6" width="23.34" height="3.04" rx="1.1"/><path d="M38.13,30.88H17.83a1.76,1.76,0,0,1,0-3.52h20.3a1.76,1.76,0,0,1,0,3.52Zm-20.3-3a1.28,1.28,0,0,0,0,2.56h20.3a1.28,1.28,0,0,0,0-2.56Z"/><rect class="cls-4" x="16.31" y="22.09" width="23.34" height="3.04" rx="1.1"/><path d="M38.13,25.38H17.83a1.77,1.77,0,0,1,0-3.53h20.3A1.77,1.77,0,0,1,40,23.49a1.75,1.75,0,0,1-1.63,1.89A1.22,1.22,0,0,1,38.13,25.38Zm-20.3-3a1.28,1.28,0,0,0-1.38,1.17,1.26,1.26,0,0,0,1.16,1.38.81.81,0,0,0,.22,0h20.3a1.27,1.27,0,0,0,1.39-1.16,1.28,1.28,0,0,0-1.16-1.39H17.83Z"/><polyline class="cls-5" points="38.77 136.37 38.77 30.64 17.84 30.64 17.84 131.62 50.3 138.92 78.77 145.46 112.81 132.27 112.81 104.17 78.77 90.1 62.56 97.95 62.56 98.16 62.56 103.71 58.67 105.79 58.67 100.07 58.67 99.83 38.77 109.49"/><path d="M42.77,137.53h-.19l-25-5.68V30.4H39v78.7l19.92-9.65v5.94l3.39-1.82V97.8l16.44-8L113.05,104v28.43l-.15.06-34.12,13.2h-.07l-28.48-6.49-.29-.39m1,.06,27.82,6.32,33.83-13.11V104.33l-33.8-14-16,7.74v5.76l-4.37,2.34v-6L39,109.64v26.54l3.71.84m-24.64-5.6,20.44,4.65V30.88H18.07Z"/><rect x="78.52" y="112.14" width="0.48" height="32.73"/><rect class="cls-5" x="18.45" y="25.13" width="19.06" height="2.46"/><path d="M37.75,27.84H18.21V24.89H37.75Zm-19-.48H37.27v-2H18.7Z"/><path class="cls-4" d="M89.14,90.77a18.34,18.34,0,0,0-21.37,0h0v9.07l13.8,0H89.3v-9Z"/><path d="M89.5,100.17h-8l-14-.06V90.68l.14-.11a18.58,18.58,0,0,1,21.65,0h0l.22.16ZM68,99.63H89V91a18.09,18.09,0,0,0-21,0Z"/><path class="cls-4" d="M88.41,99.84C86.19,98.09,82.57,97,78.47,97a16.78,16.78,0,0,0-10,2.89h0v14.81h.08c2.21-1.76,5.85-2.92,10-2.92a16.53,16.53,0,0,1,10,2.92h0V99.92Z"/><path d="M88.76,114.92h-.33l-.07,0c-2.26-1.79-5.93-2.86-9.83-2.86s-7.57,1.07-9.82,2.86l-.07,0h-.4V99.76l.13-.11c2.34-1.84,6.11-2.94,10.1-2.94s7.75,1.1,10.09,2.94l.2.16Zm-20-14.9v14.26a17.19,17.19,0,0,1,9.8-2.73,17.38,17.38,0,0,1,9.75,2.68V100.06c-2.25-1.78-5.91-2.84-9.79-2.84S71,98.24,68.73,100Z"/><path d="M88.36,102.24l-.1-.08c-2.25-1.78-5.91-2.84-9.79-2.84s-7.54,1.06-9.8,2.84h0l-.29-.38h0c2.34-1.85,6.11-3,10.1-3s7.75,1.1,10.09,3l.11.08Z"/><rect class="cls-2" x="25.87" y="35.87" width="4.22" height="7.76"/><path d="M30.33,43.88h-4.7V35.63h4.7Zm-4.22-.49h3.74V36.11H26.11Z"/><polygon class="cls-2" points="106.41 120.76 102.19 121.67 102.19 113.9 106.41 114.81 106.41 120.76"/><path d="M106.64,121l-4.7.91v-8.25l4.7.91Zm-4.22.42,3.74-.91V115l-3.74-.91Z"/><path class="cls-7" d="M107.57,129.61c-7.28.39-13,6.76-20.28,6.88-5.84.09-11-3.89-16.86-3.89-7.28,0-13.46,6.13-20.71,5.51-6.58-.57-11-6.39-17.08-8.66-6.69-2.5-14-.37-20.46,3a62.08,62.08,0,0,0,102-1.73A16,16,0,0,0,107.57,129.61Z"/><path d="M62.55,158.73a62.77,62.77,0,0,1-50.74-26l-.3-.43.46-.24c8-4.2,15-5.23,20.83-3.06a32.73,32.73,0,0,1,7,4.05c3.18,2.19,6.18,4.26,9.93,4.58s7-1.13,10.56-2.67c3.21-1.4,6.53-2.84,10.1-2.84h0a25.82,25.82,0,0,1,8.49,2c2.7,1,5.49,2,8.36,1.91,3.62-.06,6.79-1.68,10.15-3.39,3.17-1.62,6.45-3.29,10.12-3.49h0a16.77,16.77,0,0,1,6.76,1.17l.53.21-.32.47A62.46,62.46,0,0,1,62.55,158.73ZM12.86,132.64A61.63,61.63,0,0,0,113.44,131a15.26,15.26,0,0,0-5.84-.92h0c-3.47.19-6.67,1.82-9.76,3.39-3.3,1.69-6.71,3.43-10.54,3.49a25.09,25.09,0,0,1-8.69-2,25,25,0,0,0-8.18-2h0c-3.39,0-6.61,1.41-9.74,2.76-3.49,1.52-7.1,3.09-11,2.75s-7.23-2.58-10.36-4.75a33.21,33.21,0,0,0-6.84-3.94C27,127.84,20.42,128.77,12.86,132.64Z"/></g></g></g></svg>